<svg xmlns="http://www.w3.org/2000/svg" xmlns:xlink="http://www.w3.org/1999/xlink" width="600" height="600"
><style><![CDATA[.B{fill:#f0c7b1}.C{fill:#c27b55}.D{stroke:#c27b55}.E{stroke-width:1.5}]]></style><g transform="scale(3)"><path d="M225 225H-25V-25h250V225z" fill="#ecf0f1"/><g transform="matrix(.849999 0 0 .849999 14.838333 16.253084)"><path d="M100.5 100.5h-1v-1h1v1z" fill="#885330"/><use xlink:href="#J" class="B"/><path d="M159.156 184.058c24.342 3.542 34.586 8.708 37.794 50.72H200c0-12.5-.877-26.992-4.583-35-2.196-4.746-8.195-11.78-14.86-13.722-8.24-2.403-26.837-5.308-33.733-6.923-5.528-1.296-18.242-12.07-21.643-16.35 3.36 4.704 12.79 15.605 21.054 18.46 3.953 1.366 7.245 1.988 12.92 2.814zm-105.4-2.814c8.263-2.854 17.693-13.756 21.054-18.46-3.4 4.28-16.114 15.054-21.643 16.35-6.896 1.615-25.494 4.62-33.733 7.022-6.665 1.942-12.664 8.876-14.86 13.622-3.706 8.008-4.583 22.5-4.583 35h3.05c3.188-41.744 13.475-47.183 37.794-50.72 5.675-.825 8.968-1.447 12.92-2.813z" fill="#ffe4d6"/><path d="M95.646 197.62l-7.083-2.38c-10.45-4.01-44.395-6.607-44.395-6.607s35.754 1.42 43.644 2.78c-.458-4.767-3.017-20.004-3.017-20.004l6.41 21.057c.674 2.268 4.442 5.154 4.442 5.154zm10.8-1.342c-.09.073-.19.168-.302.268a2.27 2.27 0 0 0 .302-.268zm-10.8 1.342s2.893 2.992 4.347 3.03c1.9.05 4.828-2.9 6.15-4.104-1.265.957-4.16 1.39-5.3 1.436-1.33.05-5.188-.362-5.188-.362zm21.018-7.52c-1.545.248-4.386.79-4.386.79l2.287-14.9c-.646 3.07-4.474 16.21-8.12 20.278 1.9-1.616 6.158-2.39 8.324-2.704 10.236-1.484 10.232-1.483 41.062-4.94 0 0-29.07-.155-39.167 1.467z" fill="#e1ac8f"/><use xlink:href="#J" fill="none" class="D E"/><path d="M100.002 170.866c14.133 0 19-4.815 24.22-9.24-.068-6.74 1.494-19.936 2.735-29.278-15.658-2.196-38.256-2.195-53.914 0 1.24 9.342 2.802 22.53 2.733 29.272 5.224 4.427 10.088 9.246 24.227 9.246z" fill="url(#I)"/><path d="M-5.95 234.616c-.097-1.305.096-7.32.182-9.162 1.676-34.52 9.815-34.842 45.602-46.602 17.162-5.637 21.952-7.468 28.06-21.87 1.732-4.086 3.23-7.618 6.45-8.872 16.4 10.047 30.56 9.724 50.89 1.363 3.773.586 4.934 5.93 5.81 9.8 5.64 23.845 40.362 18.46 55.97 28.298 16.196 8.864 16.935 38.516 16.775 47.393.004.026.006.046.007.065-21.07.996-183.485 1.474-209.748-.402z" fill="#152c5e"/><path d="M182.492 222.6c.91-12.23 1.182-21.815 4.462-33.152-4.75 17.574 1.584 31.396-7.798 41.01 1.177-3.142 3.046-3.955 3.336-7.857zM18.5 206.248c-1.726-4.7-3.94-10.92-4.77-18.307-.3.16-.422-.745-.714-.586 1.192 13.22 5.083 20.817 6.268 40.02-.187-6.88.863-16.648-.784-21.126zm104.6-55.666c-.624.172-1.25.928-1.88 1.073 8.78 8.904 3.02 12.265 15.854 27.903.357-.2 1.52-.91 2.917-1.814-8.456-5.313-10.357-18.5-16.892-27.162zm4.873 28.267c.48 1.6 1.182 2.956 1.996 4.292-.5.207-.975.433-1.47.623-2.536-3.662-4.97-7.3-6.59-14.88-1.67-7.814-.948-6.65-6.375-15.2.343-.058 1.023-.493 1.554-.587 5.135 7.898 7.246 16.648 10.885 25.742zm8.286 1.197c-.518.298-1.04.58-1.564.862-7.207-8.34-10.05-18.66-14.846-28.34.33-.07.974-.98 1.275-1.044 4.255 5.02 4.237 7.51 5.53 11.985 1.684 5.603 6.26 12.825 9.606 16.536zm-24.157-24.995c3.854 11.032 6.377 19.74 7.078 31.438l-1.51.29c-.698-6.112-1.6-12.464-1.867-13.927-1.064-5.854-2.984-13.68-4.724-17.654.344-.043.682-.097 1.024-.146zm15.463 29.07a48.94 48.94 0 0 1-1.799.618c-6.32-8.72-6.205-20.123-11.174-31.226.194-.03.5-.05.693-.08 5.517 10.376 3.757 7.383 6.258 17.906 1.31 5.5 4.017 10.447 6.022 12.782zm-10.85 2.812c-.396.063-.8.106-1.202.158-1.437-11.685-2.015-20.9-5.835-31.754l.802-.066c3.458 9.43 4.864 22.804 6.235 31.662zm-26.22-31.475C87 166.15 86.255 174.5 85.584 185.78l-1.187-.23c.3-9.598 1.51-21.52 5.26-30.177l.85.084zm-16.84 26.84l-1.352-.55c5.427-7.417 7.915-19.667 8.576-29.212.356.1.712.182 1.067.27.256 11.258-3.435 19.884-8.29 29.49zM89.1 155.313c-4.297 8.516-5.687 20.342-5.506 30.06-.343-.077-.664-.163-1-.24-.362-11.39.92-20.313 5.48-30.088.344.043.676.233 1.024.27zM63.765 177.67l-1.69-.924c3.012-2.23 6.067-5.612 8.114-9.492 1.842-3.5 6.022-13.854 6.88-17.206.288.127.583.226.875.336-2.214 10.752-6.94 20.55-14.178 27.286zm7.882 3.806c-.6-.258-1.188-.543-1.782-.813 5.09-9.12 7.394-19.314 8.43-30.16.66.242 1.32 1.667 1.983 1.856-1.523 10.415-3.13 20.37-8.63 29.117zm5.066-31.572c-.697 2.172-1.653 4.23-2.63 6.328-2.326 5.216-4.664 13.816-12.697 20.11l-1.736-1.018c7.396-6.788 11.247-16.835 15.192-26.102.602.255 1.227.397 1.87.68z" fill="#0a1f4f"/><path d="M57.333 175.454l-2.07-1.538c-22.055 9.523-41.926 2.852-56.54 29.547-3.99 7.288-4.545 18.273-4.545 31.377 7.19-56.45 23.935-38.212 63.153-59.386zM196.7 207.09c5.44 11.127 4.946 21.213 7.122 27.75 0-13.104-2.448-23.057-5.272-30.988-8.032-22.56-35.624-20.007-53.664-27.794l-2.07 1.536c21.896 13.308 41.187 3.52 53.883 29.497z" fill="#233b6d"/><path d="M187.067 187.455c-13.433-10.616-50.315-4.53-55.917-28.223-.7-3.026-1.827-9.248-5.936-9.876-.202.047-.816-.155-.815-.155-16.182 7.008-33.106 9.1-50.1-1.202-7.632 2.97-5.548 18.164-19.974 25.28-6.3 3.16-14.488 3.445-26.402 7.406-29.668 9.34-33.597 21.576-33.808 44.76-.078 1.682-.293 8.174-.172 9.284 29.106 2.102 194.72 1.15 209.945.402.01-.057.01-.12 0-.178.307-17.183-1.72-38.37-16.83-47.5zm-61.445-37.41c7.73 2.875-.892 16.03 17 25.962-2.362 1.614-4.97 3.234-5.537 3.55-12.835-15.64-6.916-17.92-15.212-27.548 1.538-.772 2.31-1.466 3.748-1.965zm-4.166 2.07c4.254 5.024 3.916 6.92 5.208 11.396 1.684 5.603 6.26 12.824 9.605 16.535-2.5 1.44-5.1 2.693-7.76 3.718-2.536-3.662-4.73-7.344-6.48-14.88-1.543-6.64-1.004-7.17-6.162-15.076 1.073-.168 3.9-1.304 5.6-1.693zm-6.052 1.79c5.516 10.378 3.65 6.91 6.15 17.433 1.31 5.5 4.017 10.446 6.02 12.78-3.23 1.2-6.547 2.086-9.896 2.657l-1.76-13.927c-1.073-6.498-3.092-13.68-4.83-17.654 1.376-.156 2.954-1.064 4.316-1.3zm-4.915 1.364c3.46 9.43 4.864 22.805 6.235 31.662-3.158.5-6.508.68-9.638.68-.001-.03-2.036-18.832-2.834-31.17 2.178-.36 4.466-.632 6.237-1.173zm-6.772 1.198c.053 13.9 1.025 17.525 2.586 31.154-3.744.013-7.48-.178-11.226-.536 2.538-23.363 3.8-30.534 3.8-30.534 1.98 0 3.772-.047 4.83-.084zm-5.495.084c-2.98 18.285-3.5 22.712-3.842 30.464-3.423-.32-6.79-.796-9.98-1.466.3-9.598 1.51-21.52 5.26-30.177 2.843.324 5.71 1.167 8.564 1.18zm-9.112-1.24c-4.297 8.516-5.687 20.342-5.506 30.06-4.157-.918-7.73-2.095-11.29-3.623 5.427-7.417 7.915-19.667 8.576-29.212 2.707.734 5.57 2.126 8.22 2.776zm-8.833-2.955c-1.523 10.415-3.13 20.37-8.63 29.116-3.263-1.392-6.46-2.98-9.574-4.73 3.012-2.23 6.067-5.612 8.114-9.492 1.842-3.5 5.915-13.62 6.772-16.967 1.052.453 2.244 1.763 3.317 2.072zm-6.183-3.527c.827.56 1.6.903 2.51 1.312-.697 2.168-1.545 4-2.52 6.09-2.326 5.216-4.664 13.816-12.697 20.11a89.08 89.08 0 0 1-4.422-2.682c12.428-7.433 10.328-21.405 17.13-24.83zm-79.67 85.6c.146-4.763 1.287-20.803 3.86-28.177 3.32-9.512 8.278-13.597 14.59-17.326-.432 11.225 4.79 15.313 5.13 28.73.096 4.063.6 8.052 1.213 12.056-.28-4.207-.397-8.378-.376-12.595.062-12.207-4.884-17.006-4.884-28.632 13.355-7.608 35.654-10.696 41.794-14.135 14.15 10.354 27.314 15.818 50.82 15.665 17.036 0 26.96-4.9 37.458-13.234 14.42 6.477 31.095 4.024 42.352 12.997-1.776 5.867-2.995 8.928-3.326 12.126-.768 7.53.372 12.885-.602 19.802-.57 4.015-3.35 6.97-4.1 10.913 2.186-7.39 6.127-4.682 5.646-22.1-.276-9.824.5-10.08 2.982-20.337 12.328 8.578 15.5 28.732 16.197 44.77l-208.752-.522z" fill="#000f30"/><path d="M47.34 82.506c-1.378-2.405-9.403-6.675-11.855-6.5-4.23.3-5.137 5.27-5.446 7.648-.61 4.696.645 10 1.485 13.2.687 2.615 2.874 7.578 4.214 9.883 1.197 2.062 4.145 5.792 5.733 7.525 1.398 1.53 4.73 4.31 7.248 3.632 2.77-.744 6.015-3.945 6.24-5.312 1.207-7.4-4.032-23.82-7.618-30.076z" class="B D E"/><path d="M42.903 99.38c-.142-.584.007-1.57.15-2.52.13-.868.255-1.686.18-2.265-.284-2.17-1.888-6.3-2.936-8.524-1.206-2.568-3.157-5.803-5.602-6.64-1.01-.346-2.073-.522-2.145-.24-.61 1.943-.563 7.34-.212 11.338.987 11.242 10.375 19.34 11.872 21.045.276.314.566.5.637.426s-.1-.388-.375-.704c-1.477-1.692-8.314-8.684-9.27-13.098-1.012-4.685 3-12.386 3.776-13.855.397.7.732 1.352.99 1.904.204.434.43.94.66 1.49-.456.767-3.656 6.36-2.49 10.836.43 1.65 2.38 3.778 3.67 4.362.7.32.978.8 1.287 1.355.36.645.765 1.374 1.946 1.903.24.108.457.15.65.15.333 0 .586-.135.773-.295.02.282-.35 2.52-.357 2.853-.012.43.045.787.146.796s.207-.334.22-.766c.016-.53.38-3.06.29-3.372-.264-.923-1.073-1.964-1.93-3.068-.84-1.083-1.713-2.206-1.932-3.1zm-8.475-3.964c-2.316-7.184 1.456-13.48 1.977-14.464.906.826 1.704 1.932 2.354 3.015-.473.863-4.233 6.617-4.33 11.45zm10.76 10.415c-1.07-.48-1.427-1.12-1.774-1.742-.313-.562-.637-1.143-1.458-1.515-.18-.082-.375-.204-.576-.346-2.646-6.304.29-9.06 1.025-9.625.226.77.394 1.478.468 2.045.067.52-.058 1.348-.18 2.148-.15.992-.305 2.018-.144 2.68.24.99 1.137 2.146 2.005 3.263.77.993 1.562 2.015 1.832 2.85-.115.168-.48.566-1.2.242z" class="C"/><path d="M152.398 82.506c1.377-2.405 9.402-6.675 11.855-6.5 4.23.3 5.137 5.27 5.445 7.648.61 4.696-.645 10-1.484 13.2-.688 2.615-2.875 7.578-4.215 9.883-1.197 2.062-4.145 5.792-5.732 7.525-1.398 1.53-4.73 4.31-7.248 3.632-2.77-.744-6.016-3.945-6.238-5.312-1.207-7.4 4.032-23.82 7.617-30.076z" class="B D E"/><path d="M154.902 102.49c-.855 1.104-1.666 2.146-1.93 3.068-.1.312.273 2.843.29 3.372.014.432.12.773.22.766s.158-.365.146-.796c-.01-.333-.377-2.57-.357-2.853.188.16.44.295.77.295.193 0 .4-.043.65-.15 1.182-.53 1.588-1.26 1.945-1.903.31-.555.578-1.034 1.287-1.355 1.29-.584 3.24-2.71 3.67-4.362 1.168-4.476-2.03-10.07-2.488-10.836.23-.548.457-1.056.66-1.49a26.83 26.83 0 0 1 .99-1.904c.777 1.47 4.79 9.17 3.777 13.855-.955 4.415-7.793 11.406-9.27 13.098-.275.316-.447.628-.375.704s.36-.11.637-.426c1.498-1.705 10.885-9.803 11.873-21.045.35-3.997.396-9.395-.213-11.338-.072-.28-1.135-.104-2.145.24-2.445.836-4.396 4.07-5.604 6.64-1.047 2.234-2.65 6.354-2.936 8.524-.076.58.05 1.397.18 2.265.145.95.293 1.936.15 2.52-.213.903-1.086 2.026-1.928 3.1zm6.077-18.525c.65-1.083 1.45-2.188 2.355-3.015.52.986 4.29 7.28 1.977 14.464-.1-4.83-3.858-10.585-4.332-11.45zm-7.627 21.624c.27-.834 1.063-1.856 1.832-2.85.87-1.118 1.766-2.274 2.006-3.263.16-.663.006-1.69-.145-2.68-.12-.8-.246-1.627-.178-2.148.074-.567.242-1.273.467-2.045.736.566 3.672 3.32 1.025 9.625-.2.142-.396.264-.576.346-.82.372-1.145.953-1.457 1.515-.348.622-.705 1.263-1.775 1.742-.717.323-1.084-.075-1.2-.242z" class="C"/><use xlink:href="#K" class="B"/><path d="M146.772 23.236c7.478 10.415 11.917 23.39 11.898 37.46a65.5 65.5 0 0 1-1.93 15.733h-.002c-.01.054-11.124 38.833-13.512 51.572-1.335 7.104-9.47 13.505-16.668 18.73-6.718 4.875-10.12 11.886-26.557 11.886s-19.842-7.01-26.557-11.886c-7.197-5.225-15.335-11.625-16.665-18.73-2.39-12.738-13.502-51.518-13.513-51.572h0c-1.252-5.023-1.922-10.295-1.93-15.733-.02-14.066 4.415-27.037 11.89-37.45-8.812 10.764-14.113 24.603-14.1 39.7a63.19 63.19 0 0 0 2.002 15.733h.001c.012.054 11.542 38.834 14.02 51.57 1.382 7.104 9.796 13.505 17.265 18.73 6.967 4.876 10.53 11.885 27.58 11.885s20.613-7.01 27.58-11.885c7.468-5.225 15.883-11.625 17.265-18.73 2.48-12.737 14.01-51.518 14.02-51.57h.002c1.298-5.023 1.994-10.295 2.002-15.733.023-15.102-5.282-28.946-14.1-39.712z" fill="#e8b9a0"/><use xlink:href="#K" fill="none" class="D E"/><path d="M100.34 141.925c-1.526 0-2.998-.193-3.9-.547a.5.5 0 1 1 .365-.931c1.664.653 5.855.676 7.704-.193a.5.5 0 0 1 .665.239.5.5 0 0 1-.239.665c-1.12.526-2.89.767-4.595.767zm14.685-8.48c.398-.17.584-.632.413-1.03s-.635-.583-1.03-.413c-11.666 4.992-28.742.338-28.912.292-.417-.116-.852.127-.968.546s.128.85.546.968c.463.128 7.692 2.1 16.034 2.1 4.62-.001 9.578-.605 13.918-2.462z" class="C"/><g transform="matrix(.9 0 0 .9 7.397874 8.086744)"><use xlink:href="#L" fill="url(#C)"/><path d="M80.038 85.838c-.87 3.192-4.162 5.073-7.36 4.196s-5.084-4.178-4.214-7.37 4.168-5.076 7.365-4.198 5.08 4.177 4.2 7.373z" fill="#4d5d2f" stroke="#222f0a" stroke-width=".5"/><path d="M79.105 85.912c-.85 2.452-3.407 3.88-5.9 3.2-2.3-.63-3.752-2.838-3.563-5.17.853-.067 1.787-.087 2.756-.04-.01.033-.027.062-.036.096-.306 1.125.407 2.305 1.592 2.63s2.4-.326 2.707-1.45c.04-.147.06-.294.065-.44.813.296 1.61.68 2.378 1.176z" fill="#5d6c42"/><path d="M75.063 82.46c-1.203-.344-2.43.342-2.74 1.54-.31 1.19.412 2.438 1.614 2.783s2.43-.342 2.74-1.534c.313-1.198-.413-2.444-1.616-2.79zm.262 4.232c-.5.156-1.017-.05-1.154-.462s.163-.867.667-1.02 1.02.05 1.157.46-.163.867-.67 1.022z" opacity=".9"/><g fill="#fff"><path d="M71.06 87.41c-.37.222-.922.023-1.238-.447s-.27-1.024.102-1.247.925-.02 1.24.446.267 1.027-.103 1.248z" opacity=".6"/><path d="M78.96 84c-.846.507-2.117.05-2.837-1.02s-.612-2.352.234-2.857 2.118-.053 2.834 1.02.615 2.35-.23 2.858z" opacity=".8"/></g><path d="M53.294 83c.81 10.9 11.637 23.583 20.506 22.236 10.498.106 20.864-7.868 20.864-22.305s-5.087-26.528-21.127-26.528c-11.5-.001-20.243 12.16-20.243 26.597zm8.458-.477c-.506-2.285 5.19-3.973 12.71-3.05s12.738 5.524 12.052 7.844c-.38 1.286-10.64 3.245-14.253 2.847-3.664-.405-9.288-2.123-10.5-7.64z" class="B"/><path d="M72.262 90.163c3.614.398 13.873-1.56 14.253-2.847.687-2.32-4.534-6.92-12.052-7.844-6.46-.792-11.563.344-12.556 2.128.898-6.4 7.7-11.397 15.987-11.434 8.91-.037 16.148 5.676 16.172 12.765S86.88 95.793 77.97 95.833s-16.15-5.676-16.173-12.764c0-.105.016-.208.02-.313 1.33 5.327 6.834 7.008 10.445 7.407z" fill="url(#E)"/><use xlink:href="#L" fill="url(#F)"/><path d="M62.148 77.417c4.208-1.978 9.35-2.16 13.838-1.005 2.404.56 4.965 1.285 7.063 2.638 1.945 1.135 3.525 2.5 5.002 4.2-1.342-1.7-2.773-3.118-4.623-4.27-2.276-1.416-4.77-2.294-7.364-2.916-4.586-1.126-9.722-.87-13.916 1.363z" class="C"/><path d="M62.77 78.02c.88-.352 4.065-1 5.456-1.066 1.687-.082 5.073.125 6.735.424 3.374.608 9.25 2.483 11.678 7.184.746 1.445.074 2.456-.123 2.675.3-2.426-4.838-6.746-12.052-7.604-7.52-.894-13.217.743-12.71 2.958 1.222 5.348 6.846 7.013 10.5 7.405 4.1.44 11.684-1.54 12.686-1.753-2 1.01-7.524 2.095-9.767 2.303-.744.07-2.24.104-2.986.085-5.95-.158-10.17-3.175-11.73-7.26-1.002-2.626.094-4.47 2.303-5.35z"/></g><g transform="matrix(.9 0 0 .9 12.562148 8.086744)"><use xlink:href="#M" fill="url(#D)"/><path d="M131.538 85.838c-.87 3.192-4.162 5.073-7.362 4.196s-5.084-4.178-4.214-7.37 4.17-5.076 7.365-4.198 5.08 4.177 4.21 7.373z" fill="#4d5d2f" stroke="#222f0a" stroke-width=".5"/><path d="M130.605 85.912c-.85 2.452-3.408 3.88-5.9 3.2-2.3-.63-3.753-2.838-3.563-5.17.854-.067 1.787-.087 2.756-.04-.01.033-.027.062-.036.096-.306 1.125.407 2.305 1.593 2.63s2.4-.326 2.707-1.45c.038-.147.06-.294.065-.44.812.296 1.61.68 2.377 1.176z" fill="#5d6c42"/><path d="M126.563 82.46c-1.202-.344-2.43.342-2.738 1.54-.312 1.19.412 2.438 1.613 2.783s2.43-.342 2.742-1.534c.31-1.198-.414-2.444-1.617-2.79zm.262 4.232c-.5.156-1.018-.05-1.154-.462s.163-.867.667-1.02 1.02.05 1.157.46-.163.867-.67 1.022z" opacity=".9"/><g fill="#fff"><path d="M122.562 87.41c-.37.222-.923.023-1.238-.447s-.27-1.024.102-1.247.926-.02 1.24.446.266 1.027-.103 1.248z" opacity=".6"/><path d="M130.46 84c-.846.507-2.116.05-2.837-1.02s-.612-2.352.234-2.857 2.117-.053 2.834 1.02.616 2.35-.23 2.858z" opacity=".8"/></g><path d="M126.063 56.402c-16.04 0-21.127 12.09-21.127 26.528s10.366 22.412 20.864 22.305c8.87 1.347 19.697-11.337 20.506-22.236.001-14.436-8.743-26.597-20.243-26.597zm1.276 33.76c-3.614.398-13.873-1.56-14.253-2.847-.687-2.32 4.534-6.92 12.052-7.844s13.217.767 12.71 3.05c-1.222 5.517-6.846 7.235-10.5 7.64z" class="B"/><path d="M127.34 90.163c-3.614.398-13.873-1.56-14.253-2.847-.687-2.32 4.534-6.92 12.052-7.844 6.46-.792 11.563.345 12.556 2.128-.898-6.4-7.7-11.397-15.987-11.434-8.91-.037-16.148 5.676-16.172 12.765s7.185 12.862 16.095 12.902 16.15-5.676 16.173-12.764c0-.105-.016-.208-.02-.313-1.33 5.327-6.835 7.008-10.445 7.407z" fill="url(#G)"/><use xlink:href="#M" fill="url(#H)"/><path d="M137.452 77.417c-4.208-1.978-9.35-2.16-13.838-1.005-2.404.56-4.965 1.285-7.063 2.638-1.945 1.135-3.525 2.5-5.002 4.2 1.342-1.7 2.773-3.118 4.623-4.27 2.276-1.416 4.77-2.294 7.364-2.916 4.587-1.126 9.723-.87 13.916 1.363z" class="C"/><path d="M136.832 78.02c-.88-.352-4.065-1-5.456-1.066-1.687-.082-5.073.125-6.735.424-3.374.608-9.25 2.483-11.678 7.184-.746 1.445-.074 2.456.123 2.675-.3-2.426 4.838-6.746 12.052-7.604 7.52-.894 13.217.743 12.71 2.958-1.222 5.348-6.846 7.013-10.5 7.405-4.1.44-11.684-1.54-12.686-1.753 2 1.01 7.524 2.095 9.767 2.303.744.07 2.24.104 2.986.085 5.95-.158 10.17-3.175 11.73-7.26 1.002-2.626-.094-4.47-2.303-5.35z"/></g><path d="M141 113.974c.035 22.622-18.292 40.994-40.938 41.025-22.642.037-41.028-18.273-41.063-40.9C58.964 91.48 77.29 73.035 99.936 73s41.03 18.35 41.064 40.975z" fill="url(#A)"/><path d="M137.5 54c0 20.71-16.79 37.5-37.5 37.5S62.5 74.7 62.5 54 79.3 16.5 100 16.5s37.5 16.79 37.5 37.5z" fill="url(#B)"/><path d="M54.1 74.77c9.256-14.36 34.666 4.9 36.117-1.13.284-1.207-.387-1.914-1.486-2.367-12.94-5.23-30.066-9.626-34.63 3.5zm91.8 0c-9.256-14.36-34.666 4.9-36.117-1.13-.284-1.207.387-1.914 1.486-2.367 12.94-5.23 30.066-9.626 34.63 3.5z" fill="#b84131"/><path d="M98.633 90s-1.7 11.42-2.512 14.455c-.805 3.047-4.078 8.052-3.862 10.964.322 4.314 6.35 4.58 8.585 4.58l-3.713-4.472s1.735-7.615 1.916-10.528c.2-3.075-.414-15-.414-15z" fill="#e1ac8f"/><path d="M98 86.058s1.37 10.94-.117 19.334c-.477 2.694-3.91 7.452-3.38 10.135.377 1.904 6.342 4.472 6.342 4.472s-2.572-3.01-2.623-4.472c-.1-2.58 1.564-7.416 1.726-9.995.245-3.9-1.948-19.474-1.948-19.474z" class="C"/><path d="M100 18.13h0z" fill="#2a232b"/><path d="M44.974 94.895c-2.423-8.815-3.728-16.533-5.54-24.585l.083-.02c-.686-1.69-3.162-15.06-3.185-15.204-2.525-17.77 4.993-18.784 4.84-26.198 3.165 1.585 6.242.8 9.02-1.365-2.918-1.5-1.997-1.736-5.872-4.095 2.73-.472 4.326.165 6.646.454-1.983-1.983-5.875-6.028-8.404-5.492l-.165-.354c3.66-2.857 8.548 3.09 12.954 1.48C55.483 3.144 79.417-.256 85.242-2.69c7.755-2.95 15.856-9.44 21.553-10.02-3.225 3.24-5.2 8.45-5.347 12.358 4.698-4.486 5.03-4.355 12.15-12.264 0 6.364-1.763 7.163-4.05 10.898 6.21-4.07 13.955-15.49 25.88-17.235l.13.37c-4.298 2.532-7.624 6.804-9.898 12.708 2.257-2.726 5.45-5.683 8.986-6.218l.133.37c-2.215 1.325-6.554 5.742-7.547 13.138 4.38-4.893 11.35-8.948 16.134-10.48l.187.346c-4.392 3.573-6.153 9.828-7.146 15.146 3.08-4.58 4.872-5.624 8.747-7.548C143.91.743 144 .417 142.998 2.444c2.396 6.123 10.313 6.36 11.666 17.06 1.63-1.424 2.277-1.78 4.15-3.092l.282.272c-1.408 2.187-2.57 6.06-3.342 8.652 2.78-2.123 7.073-3.687 10.096-4.778l.21.328c-2.55 2.593-5.648 6.546-6.162 10.834 1-.592 1.048-.524 2.35-1.466 0 3.08.105 2.688.127 4.105 1.257-1.125 1.45-1.282 2.276-2.18-.183 32.362-1.845 25.912-6.317 48.466-.784 3.963-2.17 10.883-3.06 14.207l-6.05 1.04c1.87-22.394-.093-17.512 1.267-31.604 2.012-20.78-14.804-37.812-37.025-32.237-4.496 1.128-22.44 1.127-26.934 0-24.547-6.163-33.39 8.18-36.026 33.278-1.29 12.318-1.607 8.16.267 30.563l-5.8-.994z" fill="#885330"/><path d="M162.376 34.36c-.02-1.418-.127-1.024-.127-4.105-1.302.94-1.35.874-2.35 1.466.514-4.288 3.61-8.24 6.162-10.834l-.21-.328c-3.022 1.092-7.315 2.655-10.096 4.778.772-2.592 1.934-6.465 3.342-8.652l-.282-.272c-1.874 1.31-2.52 1.668-4.15 3.092-1.353-10.697-9.27-10.936-11.666-17.06.992-2.027.91-1.7 2.158-3.566-3.875 1.924-5.667 2.968-8.747 7.548.993-5.318 2.755-11.573 7.146-15.146l-.187-.346c-4.784 1.532-11.753 5.587-16.134 10.48.993-7.396 5.332-11.813 7.547-13.138l-.133-.37c-3.535.535-6.73 3.493-8.986 6.218 2.274-5.904 5.6-10.176 9.898-12.708l-.13-.37c-11.926 1.746-19.67 13.165-25.88 17.235 2.288-3.735 4.05-4.535 4.05-10.898-7.12 7.91-7.453 7.778-12.15 12.264.146-3.91 2.122-9.118 5.347-12.358-5.696.58-13.797 7.07-21.553 10.02-5.824 2.432-29.758 5.832-29.89 22.206-4.406 1.61-9.293-4.337-12.954-1.48l.165.354c2.53-.537 6.42 3.508 8.404 5.492-2.32-.29-3.915-.926-6.646-.454 3.875 2.36 2.954 2.596 5.872 4.095-2.777 2.164-5.854 2.95-9.02 1.365.153 7.415-7.366 8.43-4.84 26.198.023.144 2.5 13.515 3.185 15.204l-.083.02c1.812 8.052 3.117 15.77 5.54 24.585L45 94.9c-.66-16.442-11.02-39.816-4.94-54.788.793-1.955 3.86-7.11 3.86-7.11s9.627-1.264 10.08-5c0 0-2-1-3-2 2 1 2-2 4-1 0-2-3-1-3-3 2 0 4 0 6 2-1-5 0-10 4-13C72 3 85 4 95-4c-1 5-2 10-2 15 6-3 8-9 13-13 1 4-1 9-1 13 3-7 7-14 16-16-4 4-4 10-4 15 0-4 4-6 5-9v12c2-6 6-9 11-11-4 4-3 8-4 13 3-3 7-4 10-7 3 6 1 11 1 17 1-5 6-8 9-12 1 5 1 10 0 15 1-3 3-5 4-8 0 4.86-.668 9.062-1.98 13.142 1.255-1.452 3.304-2.11 3.98-4.142v12.027c.58-1.192 2.3-1.608 3-3.027-.854 3.413-.254 6.103-.06 9.302.37-1.96 2.258-3.162 2.94-4.967L161 40c.23.912.135 1.664-.118 2.335-.912 17.77-2.593 35.516-6.256 52.628l.648-.11c.9-3.324 2.276-10.244 3.06-14.207 4.473-22.554 6.135-16.104 6.317-48.466-.825.9-1.018 1.056-2.275 2.18z" fill="#976545"/><path d="M167.78 19.695c-4.95.834-8.406 2.438-11.05 4.25.385-1.005 2.193-6.67 4.14-9.05-3 1.333-4.72 2.763-5.72 3.5 0-1.032-.398-2.224-.6-2.84-.19-.515-.348-1.117-1.27-2.62-5.17-7.296-5.494-4.244-9.73-9.83.772-1.81 1.89-3.572 3.3-5.03-3.908.555-5.965 2.075-8.44 4.5a1.06 1.06 0 0 0-.1.12c1.55-6.126 4.6-11.437 10.56-13.43-7.384-.268-16.525 5.192-21.12 10.64 1.984-6.38 4.646-9.42 8.6-12.25-2.846-.42-5.635.742-7.84 2.58 2.54-4.397 6.317-7.9 9.35-9.53-.43-.01-.94-.04-1.5 0-.777-.2-5.48.566-7.16 1.3-8.33 3.252-14.39 10.822-17 13.28 1.916-3.098 2-5.298 1.66-8.52-.655.563-11.615 11.055-11.75 11.2.777-4.31 2.245-6.937 5.02-10.8-4.947-.926-17.332 7.217-25 9.4-8.044 2.18-28.004 6.723-27.1 22.7-4.295.82-10.584-6.077-13.88-.3 2.646-1.57 6.15 2.2 8.6 4.37-1-.163-4.343-.948-5.96.13 1.894.735 3.55 2.932 5.9 4.1.03.01.06.02.1.04-2.14 1.128-4.667 2.034-7 1.4-.35-.1-.58-.16-.58-.17l-.87-.38h-.01l-.01-.01-.4-.2c.695 5.608-7.817 10.155-6.88 22.02.385 7.3 4.95 29.508 10.686 44.566l.483.144c-2.392-8.626-3.777-16.74-5.57-24.7-.156 0-3.073-15.044-3.1-15.2-2.506-17.63 4.994-18.9 4.85-25.84 3.12 1.56 6.532.436 9.18-1.73-3.118-1.55-2.453-1.988-5.68-3.95 2.163-.374 4.803.483 6.62.6-2.346-2.346-6.3-6.5-8.98-5.94 3.568-2.785 8.497 3.27 13.03 1.46C55.55 3.27 79.273.02 85.32-2.506c7.27-2.766 16.283-9.476 20.94-9.95-2.44 2.458-5.02 7.9-5.02 12.58 4.834-4.638 5.3-4.615 12.16-12.22 0 6.014-2.247 7.088-4.43 10.97 6.414-3.698 14.18-15.828 26.5-17.63-5.154 3.037-8.435 8.325-10.4 13.97 2.352-3.06 5.8-6.53 9.63-7.1-2.01 1.202-6.86 5.782-7.72 13.93 4.345-5.114 11.586-9.346 16.47-10.9-4.605 3.748-6.368 10.37-7.4 16.22 1.687-2.573 3.357-4.897 5.97-6.54.01-.01.03-.02.04-.02 1.03-.7.76-.51 2.52-1.4-.67 1-.73.87-1.8 3.04 2.426 6.377 10.523 6.413 11.73 17.47 1.857-1.647 2.44-1.944 4.42-3.33-1.542 2.394-2.784 6.768-3.55 9.32 2.905-2.485 8.28-4.33 10.54-5.15-3 3.05-5.913 7.096-6.26 11.36.614-.413 1.394-.74 2.4-1.46 0 2.724.13 2.36.13 4.16.526-.48 1.72-1.5 2.27-2.1-.196 31.716-1.88 25.564-6.31 47.9-1.658 8.376-2.533 12.25-3.08 14.283l.428-.087c3.584-10.75 10.737-35.042 10.414-47.616-.033-4.7-1.06-14.5-1.1-15.5-.02.018-2.084 1.97-2.1 1.97 0-.51-.2-2.685-.2-3.87-.353.27-1.095.778-2.1 1.36 1.38-4.163 3.478-6.75 7.4-11.45z" fill="#5a2705"/><g fill="#fff"><path d="M144.8 91.54C142.14 98.8 135.17 104 127 104c-10.48 0-19-8.52-19-19a18.86 18.86 0 0 1 2.51-9.4c17.5-1.54 27.86 3.37 34.3 15.94zM56.5 75.6A18.86 18.86 0 0 0 54 85c0 10.48 8.52 19 19 19 8.17 0 15.14-5.2 17.8-12.46-6.44-12.57-16.8-17.48-34.3-15.94z" opacity=".2"/><path d="M110.5 75.6c3.28-5.73 9.43-9.6 16.5-9.6 10.48 0 19 8.52 19 19a18.69 18.69 0 0 1-1.19 6.54c-6.44-12.57-16.8-17.48-34.3-15.94zM90.8 91.54A18.69 18.69 0 0 0 92 85c0-10.48-8.52-19-19-19-7.06 0-13.22 3.88-16.5 9.6 17.5-1.54 27.86 3.37 34.3 15.94z" opacity=".4"/></g><path d="M156.7 79.96l-9.77 3.44C146.1 73.1 137.5 65 127 65c-9.4 0-17.28 6.5-19.4 15.26-.01 0-.01-.01-.02-.02-1.7-1.7-4.97-2.5-7.57-2.5s-5.88.83-7.57 2.5c-.01 0-.01.01-.02.02C90.28 71.5 82.4 65 73 65c-10.5 0-19.1 8.1-19.92 18.4l-9.77-3.44v2.88l9.76 3.43C53.73 96.72 62.4 105 73 105c11.05 0 20-8.95 20-20 0-.3-.03-.62-.05-.93h.03c0-2.4 3.6-4.68 7.02-4.68s7.02 2.3 7.02 4.68h.03c-.02.3-.05.62-.05.93 0 11.05 8.95 20 20 20 10.6 0 19.27-8.27 19.94-18.72l9.76-3.43v-2.9zM73 103.5a18.5 18.5 0 1 1 0-37 18.5 18.5 0 1 1 0 37zm54 0a18.5 18.5 0 1 1 0-37 18.5 18.5 0 1 1 0 37z" fill="#4b4e44"/></g></g><defs><radialGradient id="A" cx="100" cy="114" r="41" xlink:href="#N"><stop stop-opacity=".5" stop-color="#ffe4d6" offset="0"/><stop stop-opacity="0" stop-color="#f0c7b1" offset=".9"/></radialGradient><radialGradient id="B" cx="100" cy="54" r="37" xlink:href="#N"><stop stop-opacity=".5" stop-color="#ffe4d6" offset="0"/><stop stop-opacity="0" stop-color="#f0c7b1" offset=".9"/></radialGradient><radialGradient id="C" cx="129.041" cy="83.945" r="15.117" gradientTransform="matrix(-0.9945 0.1042 0.1042 0.9945 192.8281 -12.4633)" xlink:href="#N"><stop stop-color="#fff" offset="0"/><stop stop-color="#fcfdfd" offset=".315"/><stop stop-color="#f4f7f8" offset=".504"/><stop stop-color="#e5ecef" offset=".66"/><stop stop-color="#d8e2e7" offset=".76"/></radialGradient><radialGradient id="D" cx="128.643" cy="83.986" r="15.116" gradientTransform="matrix(0.9945 0.1042 -0.1042 0.9945 7.1738 -12.4633)" xlink:href="#N"><stop stop-color="#fff" offset="0"/><stop stop-color="#fcfdfd" offset=".316"/><stop stop-color="#f4f7f8" offset=".505"/><stop stop-color="#e5ecef" offset=".661"/><stop stop-color="#d8e2e7" offset=".76"/></radialGradient><radialGradient id="E" cx="121.986" cy="82.496" fx="133.239" fy="82.527" r="16.003" gradientTransform="matrix(0.9998 0.0208 0.0166 -0.7998 -45.3195 145.9395)" xlink:href="#N"><stop stop-color="#e1ac8f" offset="0"/><stop stop-opacity=".3" stop-color="#e1ac8f" offset=".7"/><stop stop-opacity="0" stop-color="#f0c7b1" offset="1"/></radialGradient><radialGradient id="F" cx="68.931" cy="105.995" r="29.524" gradientTransform="matrix(1.0336,0,0,1.0336,-1.6796,1.3127)" xlink:href="#N"><stop stop-opacity="0" offset=".95"/><stop stop-opacity=".2" offset="1"/></radialGradient><radialGradient id="G" cx="121.587" cy="82.496" fx="132.839" fy="82.527" r="16.003" gradientTransform="matrix(-0.9998 0.0208 -0.0166 -0.7998 244.5208 145.9478)" xlink:href="#N"><stop stop-color="#e1ac8f" offset="0"/><stop stop-opacity=".3" stop-color="#e1ac8f" offset=".7"/><stop stop-opacity="0" stop-color="#f0c7b1" offset="1"/></radialGradient><radialGradient id="H" cx="69.316" cy="105.995" r="29.524" gradientTransform="matrix(-1.0336,0,0,1.0336,201.6796,1.3127)" xlink:href="#N"><stop stop-opacity="0" offset=".95"/><stop stop-opacity=".2" offset="1"/></radialGradient><linearGradient id="I" x1="100" y1="171" x2="100" y2="131" xlink:href="#N"><stop stop-opacity=".8" stop-color="#e1ac8f" offset="0"/><stop stop-color="#c27b55" offset=".7"/></linearGradient><path id="J" d="M195.417 199.778c-2.196-4.746-8.195-11.78-14.86-13.722-8.24-2.403-26.837-5.308-33.733-6.923-5.528-1.296-16.662-11.294-20.564-14.65-.7-.6-1.273-1.84-1.287-2.76-.14-10.864 4.195-39.724 4.195-39.724H70.833s4.334 28.86 4.193 39.724c-.01.92-.587 2.16-1.285 2.76-3.902 3.356-15.036 13.354-20.564 14.65-6.897 1.615-25.495 4.62-33.733 7.022-6.667 1.942-12.664 8.876-14.86 13.622-3.708 8.008-4.584 22.5-4.584 35h200c0-12.5-.877-26.99-4.583-35z"/><path id="K" d="M100.002.867C66.384.92 39.082 28.7 39.134 62.948a63.19 63.19 0 0 0 2.002 15.733h.001c.012.054 11.542 38.834 14.02 51.57 1.382 7.104 9.796 13.505 17.265 18.73 6.967 4.876 10.53 11.885 27.58 11.885s20.613-7.01 27.58-11.885c7.468-5.225 15.883-11.625 17.265-18.73 2.48-12.737 14.01-51.518 14.02-51.57h.002c1.298-5.023 1.994-10.295 2.002-15.733C160.923 28.7 133.62.92 100.002.867z"/><path id="L" d="M61.752 82.523c-.506-2.285 5.19-3.973 12.71-3.05s12.738 5.524 12.052 7.844c-.38 1.286-10.64 3.245-14.253 2.847-3.664-.405-9.288-2.123-10.5-7.64z"/><path id="M" d="M137.85 82.523c.506-2.285-5.19-3.973-12.71-3.05s-12.738 5.524-12.052 7.844c.38 1.286 10.64 3.245 14.253 2.847 3.664-.405 9.288-2.123 10.5-7.64z"/><linearGradient id="N" gradientUnits="userSpaceOnUse"/></defs></svg>